<?xml version="1.0" encoding="UTF-8" standalone="no"?>
<svg
   xmlns:dc="http://purl.org/dc/elements/1.1/"
   xmlns:cc="http://creativecommons.org/ns#"
   xmlns:rdf="http://www.w3.org/1999/02/22-rdf-syntax-ns#"
   xmlns:svg="http://www.w3.org/2000/svg"
   xmlns="http://www.w3.org/2000/svg"
   xmlns:sodipodi="http://sodipodi.sourceforge.net/DTD/sodipodi-0.dtd"
   xmlns:inkscape="http://www.inkscape.org/namespaces/inkscape"
   version="1.1"
   id="Capa_1"
   x="0px"
   y="0px"
   viewBox="0 0 445.953 445.953"
   style="enable-background:new 0 0 445.953 445.953;"
   xml:space="preserve"
   sodipodi:docname="owl-svgrepo-com.svg"
   inkscape:version="1.0.1 (0767f8302a, 2020-10-17)"><metadata
   id="metadata49"><rdf:RDF><cc:Work
       rdf:about=""><dc:format>image/svg+xml</dc:format><dc:type
         rdf:resource="http://purl.org/dc/dcmitype/StillImage" /></cc:Work></rdf:RDF></metadata><defs
   id="defs47">





</defs><sodipodi:namedview
   pagecolor="#ffffff"
   bordercolor="#666666"
   borderopacity="1"
   objecttolerance="10"
   gridtolerance="10"
   guidetolerance="10"
   inkscape:pageopacity="0"
   inkscape:pageshadow="2"
   inkscape:window-width="1848"
   inkscape:window-height="1016"
   id="namedview45"
   showgrid="false"
   inkscape:zoom="1.9329391"
   inkscape:cx="243.85305"
   inkscape:cy="214.70687"
   inkscape:window-x="72"
   inkscape:window-y="27"
   inkscape:window-maximized="1"
   inkscape:current-layer="Capa_1" />
<path
   d="m 445.642,314.601 c -0.726,-1.962 -2.597,-3.264 -4.689,-3.264 h -46.39 c -1.095,0 -2.159,0.359 -3.03,1.022 L 333.2,356.804 h -70.361 c 21.978,-9.404 38.27,-25.553 49.275,-49.021 11.554,-1.488 24.572,-10.735 35.474,-25.415 12.407,-16.705 20.136,-37.986 21.207,-58.387 1.178,-22.444 -2.813,-38.164 -12.201,-48.058 -6.486,-6.836 -15.274,-10.59 -26.763,-11.411 V 20.822 c 0,-2.135 -1.356,-4.035 -3.376,-4.729 -2.019,-0.695 -4.257,-0.028 -5.569,1.655 l -45.67,58.616 H 138.15 L 92.479,17.749 c -1.313,-1.684 -3.551,-2.351 -5.569,-1.655 -2.02,0.693 -3.376,2.594 -3.376,4.729 v 143.691 c -11.488,0.821 -20.276,4.575 -26.762,11.41 -9.389,9.895 -13.38,25.614 -12.203,48.059 1.071,20.404 8.787,41.685 21.167,58.384 10.857,14.645 23.825,23.878 35.354,25.399 3.764,8.093 8.137,15.297 13.137,21.628 9.559,12.103 21.516,21.208 36.045,27.411 H 28.396 c -1.564,0 -3.039,0.732 -3.984,1.978 L 1.016,389.634 c -1.148,1.513 -1.339,3.545 -0.494,5.246 0.845,1.7 2.58,2.775 4.478,2.775 h 348.586 l 42.04,31.479 c 0.874,0.654 1.927,0.998 2.997,0.998 0.384,0 0.77,-0.044 1.151,-0.134 1.442,-0.342 2.659,-1.305 3.321,-2.63 l 16.237,-32.477 c 1.08,-2.16 0.462,-4.782 -1.468,-6.233 l -28.51,-21.43 54.855,-47.098 c 1.588,-1.362 2.159,-3.568 1.433,-5.529 z m -323.566,8.594 C 102.872,298.881 93.537,260.017 93.537,204.382 c 0,-2.762 -2.239,-5 -5,-5 -2.761,0 -5,2.238 -5,5 0,37.548 4.218,67.922 12.797,91.773 -17.712,-7.532 -39.915,-37.225 -41.777,-72.697 -1.012,-19.286 2.174,-32.963 9.47,-40.651 5.407,-5.698 13.424,-8.468 24.51,-8.468 2.761,0 5,-2.238 5,-5 0,-0.007 -0.002,-0.013 -0.002,-0.02 V 35.374 l 38.229,49.065 c 0.948,1.216 2.403,1.927 3.944,1.927 H 277.66 c 1.542,0 2.996,-0.711 3.944,-1.927 l 38.228,-49.064 v 133.96 c 0,0.002 0,0.003 0,0.005 0,2.762 2.239,5 5,5 11.085,0 19.102,2.77 24.509,8.468 7.296,7.688 10.481,21.365 9.469,40.651 -1.864,35.516 -24.148,65.231 -41.897,72.715 8.72,-24.027 12.917,-54.471 12.917,-91.791 0,-2.762 -2.239,-5 -5,-5 -2.761,0 -5,2.238 -5,5 0,105.877 -33.232,151.596 -110.996,152.422 h -4.439 c -38.348,-0.409 -64.55,-11.113 -82.319,-33.61 z M 15.067,387.656 30.879,366.804 h 130.852 v 11.299 c 0,3.47 0.918,6.725 2.51,9.553 z m 175.774,-9.553 c 0,5.268 -4.286,9.553 -9.555,9.553 -5.269,0 -9.555,-4.285 -9.555,-9.553 v -11.299 h 19.109 v 11.299 z m 7.49,9.553 c 1.592,-2.828 2.51,-6.083 2.51,-9.553 v -11.299 h 11.684 v 11.299 c 0,3.47 0.918,6.725 2.51,9.553 z m 43.302,-9.553 c 0,5.268 -4.287,9.553 -9.556,9.553 -5.268,0 -9.553,-4.285 -9.553,-9.553 v -11.299 h 19.108 v 11.299 z m 136.488,-14.409 c -1.149,0.987 -1.789,2.442 -1.74,3.956 0.049,1.515 0.782,2.925 1.993,3.835 l 30.151,22.663 -11.696,23.394 -38.581,-28.888 c -0.865,-0.648 -1.917,-0.998 -2.997,-0.998 H 249.124 c 1.591,-2.828 2.51,-6.083 2.51,-9.553 v -11.299 h 83.254 c 1.095,0 2.159,-0.359 3.03,-1.022 l 58.334,-44.444 h 31.203 z"
   id="path10" /><path
   d="m 180.974,192.274 21.378,37.03 c 0.893,1.547 2.544,2.5 4.33,2.5 1.786,0 3.437,-0.953 4.33,-2.5 l 21.379,-37.03 c 7.85,8.065 18.81,13.089 30.927,13.089 23.811,0 43.183,-19.371 43.183,-43.182 0,-23.811 -19.372,-43.184 -43.183,-43.184 -23.811,0 -43.182,19.372 -43.182,43.184 0,7.84 2.111,15.192 5.778,21.537 H 187.45 c 3.668,-6.345 5.779,-13.697 5.779,-21.537 0,-23.811 -19.372,-43.184 -43.183,-43.184 -23.811,0 -43.183,19.372 -43.183,43.184 0,23.811 19.372,43.182 43.183,43.182 12.117,0 23.078,-5.024 30.928,-13.089 z m 82.344,-63.276 c 18.297,0 33.183,14.886 33.183,33.184 0,18.297 -14.886,33.182 -33.183,33.182 -18.297,0 -33.182,-14.885 -33.182,-33.182 0,-18.299 14.886,-33.184 33.182,-33.184 z m -43.307,64.72 -13.329,23.086 -13.328,-23.086 z M 116.863,162.181 c 0,-18.298 14.886,-33.184 33.183,-33.184 18.297,0 33.183,14.886 33.183,33.184 0,18.297 -14.886,33.182 -33.183,33.182 -18.297,0 -33.183,-14.885 -33.183,-33.182 z"
   id="path2" /><path
   d="m 167.224,162.181 c 0,-9.472 -7.706,-17.178 -17.178,-17.178 -9.472,0 -17.177,7.706 -17.177,17.178 0,9.471 7.706,17.176 17.177,17.176 9.472,0 17.178,-7.705 17.178,-17.176 z m -24.355,0 c 0,-3.958 3.22,-7.178 7.177,-7.178 3.958,0 7.178,3.22 7.178,7.178 0,3.957 -3.22,7.176 -7.178,7.176 -3.958,0 -7.177,-3.219 -7.177,-7.176 z"
   id="path4" /><path
   d="m 263.318,179.357 c 9.472,0 17.178,-7.705 17.178,-17.176 0,-9.472 -7.706,-17.178 -17.178,-17.178 -9.472,0 -17.177,7.706 -17.177,17.178 0,9.471 7.706,17.176 17.177,17.176 z m 0,-24.354 c 3.958,0 7.178,3.22 7.178,7.178 0,3.957 -3.22,7.176 -7.178,7.176 -3.958,0 -7.177,-3.219 -7.177,-7.176 0,-3.958 3.22,-7.178 7.177,-7.178 z"
   id="path6" />
<g
   id="g14">
</g>
<g
   id="g16">
</g>
<g
   id="g18">
</g>
<g
   id="g20">
</g>
<g
   id="g22">
</g>
<g
   id="g24">
</g>
<g
   id="g26">
</g>
<g
   id="g28">
</g>
<g
   id="g30">
</g>
<g
   id="g32">
</g>
<g
   id="g34">
</g>
<g
   id="g36">
</g>
<g
   id="g38">
</g>
<g
   id="g40">
</g>
<g
   id="g42">
</g>
</svg>
