<?xml version="1.0" encoding="UTF-8" standalone="no"?>
<svg
   xmlns:dc="http://purl.org/dc/elements/1.1/"
   xmlns:cc="http://creativecommons.org/ns#"
   xmlns:rdf="http://www.w3.org/1999/02/22-rdf-syntax-ns#"
   xmlns:svg="http://www.w3.org/2000/svg"
   xmlns="http://www.w3.org/2000/svg"
   xmlns:sodipodi="http://sodipodi.sourceforge.net/DTD/sodipodi-0.dtd"
   xmlns:inkscape="http://www.inkscape.org/namespaces/inkscape"
   version="1.1"
   id="Capa_1"
   x="0px"
   y="0px"
   viewBox="0 0 445.953 445.953"
   style="enable-background:new 0 0 445.953 445.953;"
   xml:space="preserve"
   sodipodi:docname="owl-shape.svg"
   inkscape:version="0.92.5 (2060ec1f9f, 2020-04-08)"><metadata
   id="metadata49"><rdf:RDF><cc:Work
       rdf:about=""><dc:format>image/svg+xml</dc:format><dc:type
         rdf:resource="http://purl.org/dc/dcmitype/StillImage" /><dc:title></dc:title></cc:Work></rdf:RDF></metadata><defs
   id="defs47">





</defs><sodipodi:namedview
   pagecolor="#ffffff"
   bordercolor="#666666"
   borderopacity="1"
   objecttolerance="10"
   gridtolerance="10"
   guidetolerance="10"
   inkscape:pageopacity="0"
   inkscape:pageshadow="2"
   inkscape:window-width="1848"
   inkscape:window-height="1016"
   id="namedview45"
   showgrid="false"
   inkscape:zoom="1.9329391"
   inkscape:cx="150.98929"
   inkscape:cy="232.40472"
   inkscape:window-x="72"
   inkscape:window-y="27"
   inkscape:window-maximized="1"
   inkscape:current-layer="Capa_1" />
<path
   d="m 323.49563,307.783 c 11.554,-1.488 24.572,-10.735 35.474,-25.415 12.407,-16.705 20.136,-37.986 21.207,-58.387 1.178,-22.444 -2.813,-38.164 -12.201,-48.058 -6.486,-6.836 -15.274,-10.59 -26.763,-11.411 V 20.822 c 0,-2.135 -1.356,-4.035 -3.376,-4.729 -2.019,-0.695 -4.257,-0.028 -5.569,1.655 l -45.67,58.616 h -137.066 l -45.671,-58.615 c -1.313,-1.684 -3.551,-2.351 -5.568999,-1.655 -2.02,0.693 -3.376,2.594 -3.376,4.729 v 143.691 c -11.488,0.821 -20.276,4.575 -26.762,11.41 -9.389,9.895 -13.38,25.614 -12.203,48.059 1.071,20.404 8.787,41.685 21.167,58.384 10.857,14.645 23.824999,23.878 35.353999,25.399 3.764,8.093 8.137,15.297 13.137,21.628 47.71286,62.97585 157.63184,58.826 197.887,-21.611 z m -190.038,15.412 c -19.204,-24.314 -28.539,-63.178 -28.539,-118.813 0,-2.762 -2.239,-5 -4.999999,-5 -2.761,0 -5,2.238 -5,5 0,37.548 4.218,67.922 12.796999,91.773 -17.711999,-7.532 -39.914999,-37.225 -41.776999,-72.697 -1.012,-19.286 2.174,-32.963 9.47,-40.651 5.407,-5.698 13.424,-8.468 24.51,-8.468 2.760999,0 4.999999,-2.238 4.999999,-5 0,-0.007 -0.002,-0.013 -0.002,-0.02 V 35.374 l 38.229,49.065 c 0.948,1.216 2.403,1.927 3.944,1.927 h 141.952 c 1.542,0 2.996,-0.711 3.944,-1.927 l 38.228,-49.064 v 133.96 0.005 c 0,2.762 2.239,5 5,5 11.085,0 19.102,2.77 24.509,8.468 7.296,7.688 10.481,21.365 9.469,40.651 -1.864,35.516 -24.148,65.231 -41.897,72.715 8.72,-24.027 12.917,-54.471 12.917,-91.791 0,-2.762 -2.239,-5 -5,-5 -2.761,0 -5,2.238 -5,5 0,105.877 -33.232,151.596 -110.996,152.422 h -4.439 c -38.348,-0.409 -64.55,-11.113 -82.319,-33.61 z"
   id="path10"
   inkscape:connector-curvature="0"
   sodipodi:nodetypes="cccccsccccccsccccccccssscccsssccsscccsscccsssccc" />
<g
   id="g14">
</g>
<g
   id="g16">
</g>
<g
   id="g18">
</g>
<g
   id="g20">
</g>
<g
   id="g22">
</g>
<g
   id="g24">
</g>
<g
   id="g26">
</g>
<g
   id="g28">
</g>
<g
   id="g30">
</g>
<g
   id="g32">
</g>
<g
   id="g34">
</g>
<g
   id="g36">
</g>
<g
   id="g38">
</g>
<g
   id="g40">
</g>
<g
   id="g42">
</g>
</svg>
